<svg width="32" height="32" fill="none" xmlns="http://www.w3.org/2000/svg"><path d="M28 16c0-6.627-5.372-12-12-12-2.833 0-5.437.982-7.49 2.624L25.375 23.49A11.948 11.948 0 0028 16zM4 16c0 6.627 5.373 12 12 12 2.833 0 5.437-.983 7.49-2.625L6.624 8.51A11.95 11.95 0 004 16zm26.667 0c0 3.907-1.529 7.457-4.02 10.086a1.33 1.33 0 01-.562.561A14.615 14.615 0 0116 30.667C7.9 30.667 1.333 24.1 1.333 16c0-3.908 1.529-7.458 4.02-10.087a1.332 1.332 0 01.56-.56A14.617 14.617 0 0116 1.332C24.1 1.333 30.667 7.9 30.667 16z" fill="#D03E3E"/></svg>