<svg width="16" height="16" viewBox="0 0 16 16" fill="none" xmlns="http://www.w3.org/2000/svg">
<path fill-rule="evenodd" clip-rule="evenodd" d="M8.00008 1.99996C4.68637 1.99996 2.00008 4.68625 2.00008 7.99996C2.00008 11.3137 4.68637 14 8.00008 14C11.3138 14 14.0001 11.3137 14.0001 7.99996C14.0001 4.68625 11.3138 1.99996 8.00008 1.99996ZM0.666748 7.99996C0.666748 3.94987 3.94999 0.666626 8.00008 0.666626C12.0502 0.666626 15.3334 3.94987 15.3334 7.99996C15.3334 12.05 12.0502 15.3333 8.00008 15.3333C3.94999 15.3333 0.666748 12.05 0.666748 7.99996ZM8.00008 4.66663C8.36827 4.66663 8.66675 4.9651 8.66675 5.33329V7.99996C8.66675 8.36815 8.36827 8.66663 8.00008 8.66663C7.63189 8.66663 7.33342 8.36815 7.33342 7.99996V5.33329C7.33342 4.9651 7.63189 4.66663 8.00008 4.66663ZM7.33342 10.6666C7.33342 10.2984 7.63189 9.99996 8.00008 9.99996H8.00675C8.37494 9.99996 8.67342 10.2984 8.67342 10.6666C8.67342 11.0348 8.37494 11.3333 8.00675 11.3333H8.00008C7.63189 11.3333 7.33342 11.0348 7.33342 10.6666Z" fill="#D03E3E"/>
</svg>
